<svg width="14" height="17" viewBox="0 0 14 17" fill="none" xmlns="http://www.w3.org/2000/svg">
<path d="M7.69866 1.43587C8.7867 0.00696616 10.2993 0 10.2993 0C10.2993 0 10.5243 1.34341 9.44343 2.63755C8.28928 4.0194 6.97743 3.79328 6.97743 3.79328C6.97743 3.79328 6.7311 2.7065 7.69866 1.43587ZM7.11582 4.73434C7.67556 4.73434 8.71442 3.96768 10.0666 3.96768C12.3942 3.96768 13.3099 5.61795 13.3099 5.61795C13.3099 5.61795 11.519 6.53031 11.519 8.74408C11.519 11.2414 13.75 12.1021 13.75 12.1021C13.75 12.1021 12.1905 16.4758 10.084 16.4758C9.11647 16.4758 8.36428 15.8261 7.34488 15.8261C6.30602 15.8261 5.2751 16.5 4.60366 16.5C2.68011 16.5001 0.25 12.3511 0.25 9.01612C0.25 5.73492 2.30693 4.01365 4.23625 4.01365C5.49048 4.01365 6.46377 4.73434 7.11582 4.73434Z" fill="black"/>
</svg>
