<svg width="25" height="24" viewBox="0 0 25 24" fill="none" xmlns="http://www.w3.org/2000/svg">
<g id="calendar">
<path id="Icon" d="M21.3333 10H3.33325M16.3333 2V6M8.33325 2V6M8.13325 22H16.5333C18.2134 22 19.0535 22 19.6952 21.673C20.2597 21.3854 20.7187 20.9265 21.0063 20.362C21.3333 19.7202 21.3333 18.8802 21.3333 17.2V8.8C21.3333 7.11984 21.3333 6.27976 21.0063 5.63803C20.7187 5.07354 20.2597 4.6146 19.6952 4.32698C19.0535 4 18.2134 4 16.5333 4H8.13325C6.45309 4 5.61302 4 4.97128 4.32698C4.40679 4.6146 3.94785 5.07354 3.66023 5.63803C3.33325 6.27976 3.33325 7.11984 3.33325 8.8V17.2C3.33325 18.8802 3.33325 19.7202 3.66023 20.362C3.94785 20.9265 4.40679 21.3854 4.97128 21.673C5.61302 22 6.45309 22 8.13325 22Z" stroke="#000" stroke-width="2" stroke-linecap="round" stroke-linejoin="round"/>
</g>
</svg>
