<svg width="15" height="16" viewBox="0 0 15 16" fill="none" xmlns="http://www.w3.org/2000/svg">
<mask id="mask0_3212_13189" style="mask-type:luminance" maskUnits="userSpaceOnUse" x="0" y="0" width="15" height="16">
<path d="M14.5895 6.68492H8.0105V9.41281H11.7975C11.4444 11.1458 9.96817 12.1407 8.0105 12.1407C5.69982 12.1407 3.83843 10.2793 3.83843 7.96863C3.83843 5.65795 5.69982 3.79656 8.0105 3.79656C9.00538 3.79656 9.90397 4.14959 10.61 4.72726L12.664 2.67331C11.4123 1.58215 9.8077 0.908203 8.0105 0.908203C4.09517 0.908203 0.950073 4.0533 0.950073 7.96863C0.950073 11.884 4.09517 15.0291 8.0105 15.0291C11.5407 15.0291 14.75 12.4616 14.75 7.96863C14.75 7.55142 14.6858 7.10212 14.5895 6.68492Z" fill="white"/>
</mask>
<g mask="url(#mask0_3212_13189)">
<path d="M0.308228 12.141V3.79688L5.76401 7.96895L0.308228 12.141Z" fill="#FBBC05"/>
</g>
<mask id="mask1_3212_13189" style="mask-type:luminance" maskUnits="userSpaceOnUse" x="0" y="0" width="15" height="16">
<path d="M14.5895 6.68492H8.0105V9.41281H11.7975C11.4444 11.1458 9.96817 12.1407 8.0105 12.1407C5.69982 12.1407 3.83843 10.2793 3.83843 7.96863C3.83843 5.65795 5.69982 3.79656 8.0105 3.79656C9.00538 3.79656 9.90397 4.14959 10.61 4.72726L12.664 2.67331C11.4123 1.58215 9.8077 0.908203 8.0105 0.908203C4.09517 0.908203 0.950073 4.0533 0.950073 7.96863C0.950073 11.884 4.09517 15.0291 8.0105 15.0291C11.5407 15.0291 14.75 12.4616 14.75 7.96863C14.75 7.55142 14.6858 7.10212 14.5895 6.68492Z" fill="white"/>
</mask>
<g mask="url(#mask1_3212_13189)">
<path d="M0.308228 3.79584L5.76401 7.96791L8.01051 6.01025L15.7128 4.75862V0.265625H0.308228V3.79584Z" fill="#EA4335"/>
</g>
<mask id="mask2_3212_13189" style="mask-type:luminance" maskUnits="userSpaceOnUse" x="0" y="0" width="15" height="16">
<path d="M14.5895 6.68492H8.0105V9.41281H11.7975C11.4444 11.1458 9.96817 12.1407 8.0105 12.1407C5.69982 12.1407 3.83843 10.2793 3.83843 7.96863C3.83843 5.65795 5.69982 3.79656 8.0105 3.79656C9.00538 3.79656 9.90397 4.14959 10.61 4.72726L12.664 2.67331C11.4123 1.58215 9.8077 0.908203 8.0105 0.908203C4.09517 0.908203 0.950073 4.0533 0.950073 7.96863C0.950073 11.884 4.09517 15.0291 8.0105 15.0291C11.5407 15.0291 14.75 12.4616 14.75 7.96863C14.75 7.55142 14.6858 7.10212 14.5895 6.68492Z" fill="white"/>
</mask>
<g mask="url(#mask2_3212_13189)">
<path d="M0.308228 12.14L9.93608 4.75862L12.4714 5.07955L15.7128 0.265625V15.6702H0.308228V12.14Z" fill="#34A853"/>
</g>
<mask id="mask3_3212_13189" style="mask-type:luminance" maskUnits="userSpaceOnUse" x="0" y="0" width="15" height="16">
<path d="M14.5895 6.68492H8.0105V9.41281H11.7975C11.4444 11.1458 9.96817 12.1407 8.0105 12.1407C5.69982 12.1407 3.83843 10.2793 3.83843 7.96863C3.83843 5.65795 5.69982 3.79656 8.0105 3.79656C9.00538 3.79656 9.90397 4.14959 10.61 4.72726L12.664 2.67331C11.4123 1.58215 9.8077 0.908203 8.0105 0.908203C4.09517 0.908203 0.950073 4.0533 0.950073 7.96863C0.950073 11.884 4.09517 15.0291 8.0105 15.0291C11.5407 15.0291 14.75 12.4616 14.75 7.96863C14.75 7.55142 14.6858 7.10212 14.5895 6.68492Z" fill="white"/>
</mask>
<g mask="url(#mask3_3212_13189)">
<path d="M15.7128 15.6712L5.76406 7.96895L4.48035 7.00616L15.7128 3.79688V15.6712Z" fill="#4285F4"/>
</g>
</svg>
