<svg width="25" height="24" viewBox="0 0 25 24" fill="none" xmlns="http://www.w3.org/2000/svg">
<g id="layout-grid-01">
<path id="Icon" d="M3.16669 12H21.1667M12.1667 3V21M7.96669 3H16.3667C18.0468 3 18.8869 3 19.5287 3.32698C20.0931 3.6146 20.5521 4.07354 20.8397 4.63803C21.1667 5.27976 21.1667 6.11984 21.1667 7.8V16.2C21.1667 17.8802 21.1667 18.7202 20.8397 19.362C20.5521 19.9265 20.0931 20.3854 19.5287 20.673C18.8869 21 18.0468 21 16.3667 21H7.96669C6.28653 21 5.44645 21 4.80472 20.673C4.24023 20.3854 3.78129 19.9265 3.49367 19.362C3.16669 18.7202 3.16669 17.8802 3.16669 16.2V7.8C3.16669 6.11984 3.16669 5.27976 3.49367 4.63803C3.78129 4.07354 4.24023 3.6146 4.80472 3.32698C5.44645 3 6.28653 3 7.96669 3Z" stroke="#000" stroke-width="2" stroke-linecap="round" stroke-linejoin="round"/>
</g>
</svg>
